<?xml version="1.0" encoding="UTF-8" standalone="no"?><!DOCTYPE svg PUBLIC "-//W3C//DTD SVG 1.1//EN" "http://www.w3.org/Graphics/SVG/1.1/DTD/svg11.dtd"><svg width="100%" height="100%" viewBox="0 0 364 544" version="1.1" xmlns="http://www.w3.org/2000/svg" xmlns:xlink="http://www.w3.org/1999/xlink" xml:space="preserve" style="fill-rule:evenodd;clip-rule:evenodd;"><g id="g3197"><path id="rect6472-38" d="M361.5,32.444c0,-16.526 -13.418,-29.944 -29.944,-29.944l-299.112,0c-16.526,0 -29.944,13.418 -29.944,29.944l0,479.112c0,16.526 13.418,29.944 29.944,29.944l299.112,0c16.526,0 29.944,-13.418 29.944,-29.944l0,-479.112Z" style="fill:#fff;stroke:#000;stroke-width:1px;"/><path id="path3204-24-49" d="M182,227c0,0 6,15 13,25c7,10 17,20 17,20c0,0 -10,10 -17,20c-7,10 -13,25 -13,25c0,0 -6,-15 -13,-25c-7,-10 -17,-20 -17,-20c0,0 10,-10 17,-20c7,-10 13,-25 13,-25" style="fill:#f55;fill-rule:nonzero;"/><path id="path3497-2" d="M29.5,32l-9,50l5,0l2.344,-13l8.312,0l2.344,13l5,0l-9,-50l-5,0Zm2.5,13.906l3.25,18.094l-6.5,0l3.25,-18.094Z" style="fill:#f55;fill-rule:nonzero;"/><path id="path3497-5-6" d="M329.5,512l-9,-50l5,0l2.344,13l8.312,0l2.344,-13l5,0l-9,50l-5,0Zm2.5,-13.906l3.25,-18.094l-6.5,0l3.25,18.094Z" style="fill:#f55;fill-rule:nonzero;"/><path id="path3204-24-1-57" d="M32,92c0,0 3,7.5 6.5,12.5c3.5,5 8.5,10 8.5,10c0,0 -5,5 -8.5,10c-3.5,5 -6.5,12.5 -6.5,12.5c0,0 -3,-7.5 -6.5,-12.5c-3.5,-5 -8.5,-10 -8.5,-10c0,0 5,-5 8.5,-10c3.5,-5 6.5,-12.5 6.5,-12.5" style="fill:#f55;fill-rule:nonzero;"/><path id="path3204-24-1-7" d="M332,407c0,0 3,7.5 6.5,12.5c3.5,5 8.5,10 8.5,10c0,0 -5,5 -8.5,10c-3.5,5 -6.5,12.5 -6.5,12.5c0,0 -3,-7.5 -6.5,-12.5c-3.5,-5 -8.5,-10 -8.5,-10c0,0 5,-5 8.5,-10c3.5,-5 6.5,-12.5 6.5,-12.5" style="fill:#f55;fill-rule:nonzero;"/></g></svg>