<?xml version="1.0" encoding="UTF-8" standalone="no"?><!DOCTYPE svg PUBLIC "-//W3C//DTD SVG 1.1//EN" "http://www.w3.org/Graphics/SVG/1.1/DTD/svg11.dtd"><svg width="100%" height="100%" viewBox="0 0 364 544" version="1.1" xmlns="http://www.w3.org/2000/svg" xmlns:xlink="http://www.w3.org/1999/xlink" xml:space="preserve" style="fill-rule:evenodd;clip-rule:evenodd;"><g id="g3026"><path id="rect6472-82" d="M361.5,32.444c0,-16.526 -13.418,-29.944 -29.944,-29.944l-299.112,0c-16.526,0 -29.944,13.418 -29.944,29.944l0,479.112c0,16.526 13.418,29.944 29.944,29.944l299.112,0c16.526,0 29.944,-13.418 29.944,-29.944l0,-479.112Z" style="fill:#fff;stroke:#000;stroke-width:1px;"/><path id="rect3163-52-9-8-1-38-1" d="M32,32c-5.54,0 -10,4.46 -10,10l0,5l5,0l0,-5c0,-2.77 2.23,-5 5,-5c2.77,0 5,2.23 5,5l0,5c0,1.127 -0.375,3.065 -1,3.9c-4.463,9.104 -9.278,17.129 -14,26.1l0,5l20,0l0,-5l0,-5l-5,0l0,5l-5,0l-4.5,0c4.489,-7.916 8.218,-15.572 12.5,-23.6c1.25,-1.669 2,-4.145 2,-6.4l0,-5c0,-5.54 -4.46,-10 -10,-10Z" style="fill-rule:nonzero;"/><path id="rect3163-52-9-8-1-38-8-6" d="M332,512c5.54,0 10,-4.46 10,-10l0,-5l-5,0l0,5c0,2.77 -2.23,5 -5,5c-2.77,0 -5,-2.23 -5,-5l0,-5c0,-1.128 0.375,-3.065 1,-3.9c4.463,-9.104 9.278,-17.129 14,-26.1l0,-5l-10,0l-10,0l0,10l5,0l0,-5l9.5,0c-4.489,7.915 -8.218,15.572 -12.5,23.6c-1.25,1.669 -2,4.145 -2,6.4l0,5c0,5.54 4.46,10 10,10Z" style="fill-rule:nonzero;"/><path id="path3037-1-83" d="M34.5,120c1,2 3.5,5 6,5c4.5,0 6.5,-4 6.5,-9c0,-5 -2,-9.5 -6.5,-9.5c-2.5,0 -4,2.5 -5.5,4c-0.5,0.5 -1,0 -0.5,-0.5c1.5,-1.5 4,-5.5 4,-9c0,-4 -2.5,-9 -6.5,-9c-4,0 -6.5,5 -6.5,9c0,3.5 2.5,7.5 4,9c0.5,0.5 0,1 -0.5,0.5c-1.5,-1.5 -3,-4 -5.5,-4c-4.5,0 -6.5,4.5 -6.5,9.5c0,5 2,9 6.5,9c2.5,0 5,-3 6,-5c0.5,-0.5 0.5,0 0.5,0.5c-0.5,4 -0.5,5 -1,8c-0.5,3 -2,8.5 -2,8.5c2.5,-1 7.5,-1 10,0c0,0 -1.5,-5.5 -2,-8.5c-0.5,-3 -0.5,-4 -1,-8c0,-0.5 0,-1 0.5,-0.5Z" style="fill-rule:nonzero;"/><path id="path3037-1-1-14" d="M334.5,424c1,-2 3.5,-5 6,-5c4.5,0 6.5,4 6.5,9c0,5 -2,9.5 -6.5,9.5c-2.5,0 -4,-2.5 -5.5,-4c-0.5,-0.5 -1,0 -0.5,0.5c1.5,1.5 4,5.5 4,9c0,4 -2.5,9 -6.5,9c-4,0 -6.5,-5 -6.5,-9c0,-3.5 2.5,-7.5 4,-9c0.5,-0.5 0,-1 -0.5,-0.5c-1.5,1.5 -3,4 -5.5,4c-4.5,0 -6.5,-4.5 -6.5,-9.5c0,-5 2,-9 6.5,-9c2.5,0 5,3 6,5c0.5,0.5 0.5,0 0.5,-0.5c-0.5,-4 -0.5,-5 -1,-8c-0.5,-3 -2,-8.5 -2,-8.5c2.5,1 7.5,1 10,0c0,0 -1.5,5.5 -2,8.5c-0.5,3 -0.5,4 -1,8c0,0.5 0,1 0.5,0.5Z" style="fill-rule:nonzero;"/><path id="path3037-84" d="M187,103c2,4 7,10 12,10c9,0 13,-8 13,-18c0,-10 -4,-19 -13,-19c-5,0 -8,5 -11,8c-1,1 -2,0 -1,-1c3,-3 8,-11 8,-18c0,-8 -5,-18 -13,-18c-8,0 -13,10 -13,18c0,7 5,15 8,18c1,1 0,2 -1,1c-3,-3 -6,-8 -11,-8c-9,0 -13,9 -13,19c0,10 4,18 13,18c5,0 10,-6 12,-10c1,-1 1,0 1,1c-1,8 -1,10 -2,16c-1,6 -4,17 -4,17c5,-2 15,-2 20,0c0,0 -3,-11 -4,-17c-1,-6 -1,-8 -2,-16c0,-1 0,-2 1,-1Z" style="fill-rule:nonzero;"/><path id="path3037-7-92" d="M187,441c2,-4 7,-10 12,-10c9,0 13,8 13,18c0,10 -4,19 -13,19c-5,0 -8,-5 -11,-8c-1,-1 -2,0 -1,1c3,3 8,11 8,18c0,8 -5,18 -13,18c-8,0 -13,-10 -13,-18c0,-7 5,-15 8,-18c1,-1 0,-2 -1,-1c-3,3 -6,8 -11,8c-9,0 -13,-9 -13,-19c0,-10 4,-18 13,-18c5,0 10,6 12,10c1,1 1,0 1,-1c-1,-8 -1,-10 -2,-16c-1,-6 -4,-17 -4,-17c5,2 15,2 20,0c0,0 -3,11 -4,17c-1,6 -1,8 -2,16c0,1 0,2 1,1Z" style="fill-rule:nonzero;"/></g></svg>