<?xml version="1.0" encoding="UTF-8" standalone="no"?><!DOCTYPE svg PUBLIC "-//W3C//DTD SVG 1.1//EN" "http://www.w3.org/Graphics/SVG/1.1/DTD/svg11.dtd"><svg width="100%" height="100%" viewBox="0 0 364 544" version="1.1" xmlns="http://www.w3.org/2000/svg" xmlns:xlink="http://www.w3.org/1999/xlink" xml:space="preserve" style="fill-rule:evenodd;clip-rule:evenodd;"><g id="g2996"><path id="rect6472-0" d="M361.5,32.444c0,-16.526 -13.418,-29.944 -29.944,-29.944l-299.112,0c-16.526,0 -29.944,13.418 -29.944,29.944l0,479.112c0,16.526 13.418,29.944 29.944,29.944l299.112,0c16.526,0 29.944,-13.418 29.944,-29.944l0,-479.112Z" style="fill:#fff;stroke:#000;stroke-width:1px;"/><path id="rect3163-5-18-0-7-9" d="M32,32c-5.54,0 -10,4.46 -10,10l0,5c0,3.004 1.323,5.67 3.406,7.5c-2.083,1.83 -3.406,4.496 -3.406,7.5l0,10c0,5.54 4.46,10 10,10c5.54,0 10,-4.46 10,-10l0,-10c0,-3.004 -1.323,-5.67 -3.406,-7.5c2.083,-1.83 3.406,-4.496 3.406,-7.5l0,-5c0,-5.54 -4.46,-10 -10,-10Zm0,5c2.77,0 5,2.23 5,5l0,5c0,2.77 -2.23,5 -5,5c-2.77,0 -5,-2.23 -5,-5l0,-5c0,-2.77 2.23,-5 5,-5Zm0,20c2.77,0 5,2.23 5,5l0,10c0,2.77 -2.23,5 -5,5c-2.77,0 -5,-2.23 -5,-5l0,-10c0,-2.77 2.23,-5 5,-5Z" style="fill:#f55;fill-rule:nonzero;"/><path id="rect3163-5-18-0-7-4-7" d="M332,512c-5.54,0 -10,-4.46 -10,-10l0,-5c0,-3.004 1.323,-5.67 3.406,-7.5c-2.083,-1.83 -3.406,-4.496 -3.406,-7.5l0,-10c0,-5.54 4.46,-10 10,-10c5.54,0 10,4.46 10,10l0,10c0,3.004 -1.323,5.67 -3.406,7.5c2.083,1.83 3.406,4.496 3.406,7.5l0,5c0,5.54 -4.46,10 -10,10l0,0Zm0,-5c2.77,0 5,-2.23 5,-5l0,-5c0,-2.77 -2.23,-5 -5,-5c-2.77,0 -5,2.23 -5,5l0,5c0,2.77 2.23,5 5,5Zm0,-20c2.77,0 5,-2.23 5,-5l0,-10c0,-2.77 -2.23,-5 -5,-5c-2.77,0 -5,2.23 -5,5l0,10c0,2.77 2.23,5 5,5Z" style="fill:#f55;fill-rule:nonzero;"/><path id="path3204-24-1-3" d="M92,47c0,0 6,15 13,25c7,10 17,20 17,20c0,0 -10,10 -17,20c-7,10 -13,25 -13,25c0,0 -6,-15 -13,-25c-7,-10 -17,-20 -17,-20c0,0 10,-10 17,-20c7,-10 13,-25 13,-25" style="fill:#f55;fill-rule:nonzero;"/><path id="path3204-24-7-7" d="M272,47c0,0 6,15 13,25c7,10 17,20 17,20c0,0 -10,10 -17,20c-7,10 -13,25 -13,25c0,0 -6,-15 -13,-25c-7,-10 -17,-20 -17,-20c0,0 10,-10 17,-20c7,-10 13,-25 13,-25" style="fill:#f55;fill-rule:nonzero;"/><path id="path3204-24-4-2" d="M182,137c0,0 6,15 13,25c7,10 17,20 17,20c0,0 -10,10 -17,20c-7,10 -13,25 -13,25c0,0 -6,-15 -13,-25c-7,-10 -17,-20 -17,-20c0,0 10,-10 17,-20c7,-10 13,-25 13,-25" style="fill:#f55;fill-rule:nonzero;"/><path id="path3204-24-6" d="M92,227c0,0 6,15 13,25c7,10 17,20 17,20c0,0 -10,10 -17,20c-7,10 -13,25 -13,25c0,0 -6,-15 -13,-25c-7,-10 -17,-20 -17,-20c0,0 10,-10 17,-20c7,-10 13,-25 13,-25" style="fill:#f55;fill-rule:nonzero;"/><path id="path3204-24-0-0" d="M272,227c0,0 6,15 13,25c7,10 17,20 17,20c0,0 -10,10 -17,20c-7,10 -13,25 -13,25c0,0 -6,-15 -13,-25c-7,-10 -17,-20 -17,-20c0,0 10,-10 17,-20c7,-10 13,-25 13,-25" style="fill:#f55;fill-rule:nonzero;"/><path id="path3204-24-9-1" d="M182,317c0,0 6,15 13,25c7,10 17,20 17,20c0,0 -10,10 -17,20c-7,10 -13,25 -13,25c0,0 -6,-15 -13,-25c-7,-10 -17,-20 -17,-20c0,0 10,-10 17,-20c7,-10 13,-25 13,-25" style="fill:#f55;fill-rule:nonzero;"/><path id="path3204-24-48-6" d="M92,407c0,0 6,15 13,25c7,10 17,20 17,20c0,0 -10,10 -17,20c-7,10 -13,25 -13,25c0,0 -6,-15 -13,-25c-7,-10 -17,-20 -17,-20c0,0 10,-10 17,-20c7,-10 13,-25 13,-25" style="fill:#f55;fill-rule:nonzero;"/><path id="path3204-24-8-5" d="M272,407c0,0 6,15 13,25c7,10 17,20 17,20c0,0 -10,10 -17,20c-7,10 -13,25 -13,25c0,0 -6,-15 -13,-25c-7,-10 -17,-20 -17,-20c0,0 10,-10 17,-20c7,-10 13,-25 13,-25" style="fill:#f55;fill-rule:nonzero;"/><path id="path3204-24-1-2" d="M32,92c0,0 3,7.5 6.5,12.5c3.5,5 8.5,10 8.5,10c0,0 -5,5 -8.5,10c-3.5,5 -6.5,12.5 -6.5,12.5c0,0 -3,-7.5 -6.5,-12.5c-3.5,-5 -8.5,-10 -8.5,-10c0,0 5,-5 8.5,-10c3.5,-5 6.5,-12.5 6.5,-12.5" style="fill:#f55;fill-rule:nonzero;"/><path id="path3204-24-1-4" d="M332,407c0,0 3,7.5 6.5,12.5c3.5,5 8.5,10 8.5,10c0,0 -5,5 -8.5,10c-3.5,5 -6.5,12.5 -6.5,12.5c0,0 -3,-7.5 -6.5,-12.5c-3.5,-5 -8.5,-10 -8.5,-10c0,0 5,-5 8.5,-10c3.5,-5 6.5,-12.5 6.5,-12.5" style="fill:#f55;fill-rule:nonzero;"/></g></svg>