<?xml version="1.0" encoding="UTF-8" standalone="no"?><!DOCTYPE svg PUBLIC "-//W3C//DTD SVG 1.1//EN" "http://www.w3.org/Graphics/SVG/1.1/DTD/svg11.dtd"><svg width="100%" height="100%" viewBox="0 0 364 544" version="1.1" xmlns="http://www.w3.org/2000/svg" xmlns:xlink="http://www.w3.org/1999/xlink" xml:space="preserve" style="fill-rule:evenodd;clip-rule:evenodd;"><g id="g3028"><path id="rect6472-070" d="M361.5,32.444c0,-16.526 -13.418,-29.944 -29.944,-29.944l-299.112,0c-16.526,0 -29.944,13.418 -29.944,29.944l0,479.112c0,16.526 13.418,29.944 29.944,29.944l299.112,0c16.526,0 29.944,-13.418 29.944,-29.944l0,-479.112Z" style="fill:#fff;stroke:#000;stroke-width:1px;"/><path id="path3497-6" d="M29.5,32l-9,50l5,0l2.344,-13l8.312,0l2.344,13l5,0l-9,-50l-5,0Zm2.5,13.906l3.25,18.094l-6.5,0l3.25,-18.094Z" style="fill:#f55;fill-rule:nonzero;"/><path id="path3497-5-0" d="M329.5,512l-9,-50l5,0l2.344,13l8.312,0l2.344,-13l5,0l-9,50l-5,0Zm2.5,-13.906l3.25,-18.094l-6.5,0l3.25,18.094Z" style="fill:#f55;fill-rule:nonzero;"/><path id="path3126-70" d="M181,245c0,-11.046 -5.716,-18 -14,-18c-8.284,0 -15,8.954 -15,20c0.035,0.956 0.018,1.891 0,2.812c0,7.299 2.677,14.377 5,21c2.389,6.811 5.834,12.781 9.063,18.875c5.001,9.44 15.937,27.313 15.937,27.313c0,0 10.936,-17.873 15.938,-27.313c3.228,-6.094 6.673,-12.064 9.062,-18.875c2.323,-6.623 5,-13.701 5,-21c-0.028,-0.974 -0.019,-1.914 0,-2.812c0,-11.046 -6.716,-20 -15,-20c-8.284,0 -14,6.954 -14,18c0,2 -2,2 -2,0Z" style="fill:#f55;fill-rule:nonzero;"/><path id="path3126-1-5" d="M31.5,101c0,-5.523 -2.858,-9 -7,-9c-4.142,0 -7.5,4.477 -7.5,10c0.017,0.478 0.009,0.946 0,1.406c0,3.649 1.338,7.189 2.5,10.5c1.195,3.406 2.917,6.391 4.531,9.438c2.501,4.719 7.969,13.656 7.969,13.656c0,0 5.468,-8.937 7.969,-13.656c1.614,-3.047 3.336,-6.032 4.531,-9.438c1.162,-3.311 2.5,-6.851 2.5,-10.5c-0.014,-0.487 -0.009,-0.957 0,-1.406c0,-5.523 -3.358,-10 -7.5,-10c-4.142,0 -7,3.477 -7,9c0,1 -1,1 -1,0Z" style="fill:#f55;fill-rule:nonzero;"/><path id="path3126-1-7-67" d="M331.5,443c0,5.523 -2.858,9 -7,9c-4.142,0 -7.5,-4.477 -7.5,-10c0.017,-0.478 0.009,-0.946 0,-1.406c0,-3.649 1.338,-7.189 2.5,-10.5c1.195,-3.406 2.917,-6.391 4.531,-9.438c2.501,-4.719 7.969,-13.656 7.969,-13.656c0,0 5.468,8.937 7.969,13.656c1.614,3.047 3.336,6.032 4.531,9.438c1.162,3.311 2.5,6.851 2.5,10.5c-0.014,0.487 -0.009,0.957 0,1.406c0,5.523 -3.358,10 -7.5,10c-4.142,0 -7,-3.477 -7,-9c0,-1 -1,-1 -1,0Z" style="fill:#f55;fill-rule:nonzero;"/></g></svg>