<?xml version="1.0" encoding="UTF-8" standalone="no"?><!DOCTYPE svg PUBLIC "-//W3C//DTD SVG 1.1//EN" "http://www.w3.org/Graphics/SVG/1.1/DTD/svg11.dtd"><svg width="100%" height="100%" viewBox="0 0 364 544" version="1.1" xmlns="http://www.w3.org/2000/svg" xmlns:xlink="http://www.w3.org/1999/xlink" xml:space="preserve" style="fill-rule:evenodd;clip-rule:evenodd;"><g id="g3044"><path id="rect6472-33" d="M361.5,32.444c0,-16.526 -13.418,-29.944 -29.944,-29.944l-299.112,0c-16.526,0 -29.944,13.418 -29.944,29.944l0,479.112c0,16.526 13.418,29.944 29.944,29.944l299.112,0c16.526,0 29.944,-13.418 29.944,-29.944l0,-479.112Z" style="fill:#fff;stroke:#000;stroke-width:1px;"/><path id="rect3980-7-6-2-9-9" d="M32,32l-10,35l0,5l12,0l0,10l5,0l0,-10l3,0l0,-5l-3,0l0,-15l-5,0l0,15l-6.8,0l10,-35l-5.2,0Z" style="fill:#f55;fill-rule:nonzero;"/><path id="rect3980-7-6-2-9-9-8" d="M332,512l10,-35l0,-5l-12,0l0,-10l-5,0l0,10l-3,0l0,5l3,0l0,15l5,0l0,-15l6.8,0l-10,35l5.2,0Z" style="fill:#f55;fill-rule:nonzero;"/><path id="path3204-24-55" d="M92,47c0,0 6,15 13,25c7,10 17,20 17,20c0,0 -10,10 -17,20c-7,10 -13,25 -13,25c0,0 -6,-15 -13,-25c-7,-10 -17,-20 -17,-20c0,0 10,-10 17,-20c7,-10 13,-25 13,-25" style="fill:#f55;fill-rule:nonzero;"/><path id="path3204-24-1-32" d="M272,47c0,0 6,15 13,25c7,10 17,20 17,20c0,0 -10,10 -17,20c-7,10 -13,25 -13,25c0,0 -6,-15 -13,-25c-7,-10 -17,-20 -17,-20c0,0 10,-10 17,-20c7,-10 13,-25 13,-25" style="fill:#f55;fill-rule:nonzero;"/><path id="path3204-24-7-8" d="M92,407c0,0 6,15 13,25c7,10 17,20 17,20c0,0 -10,10 -17,20c-7,10 -13,25 -13,25c0,0 -6,-15 -13,-25c-7,-10 -17,-20 -17,-20c0,0 10,-10 17,-20c7,-10 13,-25 13,-25" style="fill:#f55;fill-rule:nonzero;"/><path id="path3204-24-4-25" d="M272,407c0,0 6,15 13,25c7,10 17,20 17,20c0,0 -10,10 -17,20c-7,10 -13,25 -13,25c0,0 -6,-15 -13,-25c-7,-10 -17,-20 -17,-20c0,0 10,-10 17,-20c7,-10 13,-25 13,-25" style="fill:#f55;fill-rule:nonzero;"/><path id="path3204-24-1-0-3" d="M32,92c0,0 3,7.5 6.5,12.5c3.5,5 8.5,10 8.5,10c0,0 -5,5 -8.5,10c-3.5,5 -6.5,12.5 -6.5,12.5c0,0 -3,-7.5 -6.5,-12.5c-3.5,-5 -8.5,-10 -8.5,-10c0,0 5,-5 8.5,-10c3.5,-5 6.5,-12.5 6.5,-12.5" style="fill:#f55;fill-rule:nonzero;"/><path id="path3204-24-1-9-6" d="M332,407c0,0 3,7.5 6.5,12.5c3.5,5 8.5,10 8.5,10c0,0 -5,5 -8.5,10c-3.5,5 -6.5,12.5 -6.5,12.5c0,0 -3,-7.5 -6.5,-12.5c-3.5,-5 -8.5,-10 -8.5,-10c0,0 5,-5 8.5,-10c3.5,-5 6.5,-12.5 6.5,-12.5" style="fill:#f55;fill-rule:nonzero;"/></g></svg>