<?xml version="1.0" encoding="UTF-8" standalone="no"?><!DOCTYPE svg PUBLIC "-//W3C//DTD SVG 1.1//EN" "http://www.w3.org/Graphics/SVG/1.1/DTD/svg11.dtd"><svg width="100%" height="100%" viewBox="0 0 364 544" version="1.1" xmlns="http://www.w3.org/2000/svg" xmlns:xlink="http://www.w3.org/1999/xlink" xml:space="preserve" style="fill-rule:evenodd;clip-rule:evenodd;"><g id="g3092"><path id="rect6472-39" d="M361.5,32.444c0,-16.526 -13.418,-29.944 -29.944,-29.944l-299.112,0c-16.526,0 -29.944,13.418 -29.944,29.944l0,479.112c0,16.526 13.418,29.944 29.944,29.944l299.112,0c16.526,0 29.944,-13.418 29.944,-29.944l0,-479.112Z" style="fill:#fff;stroke:#000;stroke-width:1px;"/><path id="rect3980-2-1-93-8" d="M22,32l0,10l5,0l0,-5l10,0l-10,45l5,0l10,-45l0,-5l-20,0Z" style="fill:#f55;fill-rule:nonzero;"/><path id="rect3980-2-1-93-0-80" d="M342,512l0,-5l0,-5l-5,0l0,5l-10,0l10,-45l-5,0l-10,45l0,5l20,0Z" style="fill:#f55;fill-rule:nonzero;"/><path id="path3204-24-1-8" d="M32,92c0,0 3,7.5 6.5,12.5c3.5,5 8.5,10 8.5,10c0,0 -5,5 -8.5,10c-3.5,5 -6.5,12.5 -6.5,12.5c0,0 -3,-7.5 -6.5,-12.5c-3.5,-5 -8.5,-10 -8.5,-10c0,0 5,-5 8.5,-10c3.5,-5 6.5,-12.5 6.5,-12.5" style="fill:#f55;fill-rule:nonzero;"/><path id="path3204-24-1-1-7" d="M332,407c0,0 3,7.5 6.5,12.5c3.5,5 8.5,10 8.5,10c0,0 -5,5 -8.5,10c-3.5,5 -6.5,12.5 -6.5,12.5c0,0 -3,-7.5 -6.5,-12.5c-3.5,-5 -8.5,-10 -8.5,-10c0,0 5,-5 8.5,-10c3.5,-5 6.5,-12.5 6.5,-12.5" style="fill:#f55;fill-rule:nonzero;"/><path id="path3204-24-9-7" d="M92,47c0,0 6,15 13,25c7,10 17,20 17,20c0,0 -10,10 -17,20c-7,10 -13,25 -13,25c0,0 -6,-15 -13,-25c-7,-10 -17,-20 -17,-20c0,0 10,-10 17,-20c7,-10 13,-25 13,-25" style="fill:#f55;fill-rule:nonzero;"/><path id="path3204-24-4-83" d="M272,47c0,0 6,15 13,25c7,10 17,20 17,20c0,0 -10,10 -17,20c-7,10 -13,25 -13,25c0,0 -6,-15 -13,-25c-7,-10 -17,-20 -17,-20c0,0 10,-10 17,-20c7,-10 13,-25 13,-25" style="fill:#f55;fill-rule:nonzero;"/><path id="path3204-24-8-8" d="M182,137c0,0 6,15 13,25c7,10 17,20 17,20c0,0 -10,10 -17,20c-7,10 -13,25 -13,25c0,0 -6,-15 -13,-25c-7,-10 -17,-20 -17,-20c0,0 10,-10 17,-20c7,-10 13,-25 13,-25" style="fill:#f55;fill-rule:nonzero;"/><path id="path3204-24-37" d="M92,227c0,0 6,15 13,25c7,10 17,20 17,20c0,0 -10,10 -17,20c-7,10 -13,25 -13,25c0,0 -6,-15 -13,-25c-7,-10 -17,-20 -17,-20c0,0 10,-10 17,-20c7,-10 13,-25 13,-25" style="fill:#f55;fill-rule:nonzero;"/><path id="path3204-24-82" d="M272,227c0,0 6,15 13,25c7,10 17,20 17,20c0,0 -10,10 -17,20c-7,10 -13,25 -13,25c0,0 -6,-15 -13,-25c-7,-10 -17,-20 -17,-20c0,0 10,-10 17,-20c7,-10 13,-25 13,-25" style="fill:#f55;fill-rule:nonzero;"/><path id="path3204-24-45-1" d="M92,407c0,0 6,15 13,25c7,10 17,20 17,20c0,0 -10,10 -17,20c-7,10 -13,25 -13,25c0,0 -6,-15 -13,-25c-7,-10 -17,-20 -17,-20c0,0 10,-10 17,-20c7,-10 13,-25 13,-25" style="fill:#f55;fill-rule:nonzero;"/><path id="path3204-24-5" d="M272,407c0,0 6,15 13,25c7,10 17,20 17,20c0,0 -10,10 -17,20c-7,10 -13,25 -13,25c0,0 -6,-15 -13,-25c-7,-10 -17,-20 -17,-20c0,0 10,-10 17,-20c7,-10 13,-25 13,-25" style="fill:#f55;fill-rule:nonzero;"/></g></svg>