<?xml version="1.0" encoding="UTF-8" standalone="no"?><!DOCTYPE svg PUBLIC "-//W3C//DTD SVG 1.1//EN" "http://www.w3.org/Graphics/SVG/1.1/DTD/svg11.dtd"><svg width="100%" height="100%" viewBox="0 0 364 544" version="1.1" xmlns="http://www.w3.org/2000/svg" xmlns:xlink="http://www.w3.org/1999/xlink" xml:space="preserve" style="fill-rule:evenodd;clip-rule:evenodd;"><g id="g3033"><path id="rect6472-07" d="M361.5,32.444c0,-16.526 -13.418,-29.944 -29.944,-29.944l-299.112,0c-16.526,0 -29.944,13.418 -29.944,29.944l0,479.112c0,16.526 13.418,29.944 29.944,29.944l299.112,0c16.526,0 29.944,-13.418 29.944,-29.944l0,-479.112Z" style="fill:#fff;stroke:#000;stroke-width:1px;"/><path id="rect3163-52-9-8-1-38" d="M32,32c-5.54,0 -10,4.46 -10,10l0,5l5,0l0,-5c0,-2.77 2.23,-5 5,-5c2.77,0 5,2.23 5,5l0,5c0,1.127 -0.375,3.065 -1,3.9c-4.463,9.104 -9.278,17.129 -14,26.1l0,5l20,0l0,-5l0,-5l-5,0l0,5l-5,0l-4.5,0c4.489,-7.916 8.218,-15.572 12.5,-23.6c1.25,-1.669 2,-4.145 2,-6.4l0,-5c0,-5.54 -4.46,-10 -10,-10Z" style="fill-rule:nonzero;"/><path id="rect3163-52-9-8-1-38-8" d="M332,512c5.54,0 10,-4.46 10,-10l0,-5l-5,0l0,5c0,2.77 -2.23,5 -5,5c-2.77,0 -5,-2.23 -5,-5l0,-5c0,-1.127 0.375,-3.065 1,-3.9c4.463,-9.104 9.278,-17.129 14,-26.1l0,-5l-10,0l-10,0l0,10l5,0l0,-5l9.5,0c-4.489,7.915 -8.218,15.572 -12.5,23.6c-1.25,1.669 -2,4.145 -2,6.4l0,5c0,5.54 4.46,10 10,10Z" style="fill-rule:nonzero;"/><path id="path3037-7-4-0" d="M34.5,120c0.5,2 2.5,7 6,7c4.5,0 6.5,-4 6.5,-9c0,-3.5 -1.289,-5.806 -2.5,-8.5c-1.289,-2.868 -3.19,-5.429 -5,-8c-2.323,-3.299 -7.5,-9.5 -7.5,-9.5c0,0 -5.177,6.201 -7.5,9.5c-1.81,2.571 -3.711,5.132 -5,8c-1.211,2.694 -2.5,5 -2.5,8.5c0,5 2,9 6.5,9c3.5,0 5.5,-5 6,-7c0.5,-0.5 0.5,0 0.5,0.5c-0.5,4 -0.5,5 -1,8c-0.5,3 -2,8.5 -2,8.5c2.5,-1 7.5,-1 10,0c0,0 -1.5,-5.5 -2,-8.5c-0.5,-3 -0.5,-4 -1,-8c0,-0.5 0,-1 0.5,-0.5Z" style="fill-rule:nonzero;"/><path id="path3037-7-4-1-3" d="M334.5,424c0.5,-2 2.5,-7 6,-7c4.5,0 6.5,4 6.5,9c0,3.5 -1.289,5.806 -2.5,8.5c-1.289,2.868 -3.19,5.429 -5,8c-2.323,3.299 -7.5,9.5 -7.5,9.5c0,0 -5.177,-6.201 -7.5,-9.5c-1.81,-2.571 -3.711,-5.132 -5,-8c-1.211,-2.694 -2.5,-5 -2.5,-8.5c0,-5 2,-9 6.5,-9c3.5,0 5.5,5 6,7c0.5,0.5 0.5,0 0.5,-0.5c-0.5,-4 -0.5,-5 -1,-8c-0.5,-3 -2,-8.5 -2,-8.5c2.5,1 7.5,1 10,0c0,0 -1.5,5.5 -2,8.5c-0.5,3 -0.5,4 -1,8c0,0.5 0,1 0.5,0.5Z" style="fill-rule:nonzero;"/><path id="path3037-7-40" d="M187,103c1,4 5,14 12,14c9,0 13,-8 13,-18c0,-7 -2.579,-11.612 -5,-17c-2.578,-5.737 -6.379,-10.857 -10,-16c-4.645,-6.598 -15,-19 -15,-19c0,0 -10.355,12.402 -15,19c-3.621,5.143 -7.422,10.263 -10,16c-2.421,5.388 -5,10 -5,17c0,10 4,18 13,18c7,0 11,-10 12,-14c1,-1 1,0 1,1c-1,8 -1,10 -2,16c-1,6 -4,17 -4,17c5,-2 15,-2 20,0c0,0 -3,-11 -4,-17c-1,-6 -1,-8 -2,-16c0,-1 0,-2 1,-1Z" style="fill-rule:nonzero;"/><path id="path3037-7-7-0" d="M187,441c1,-4 5,-14 12,-14c9,0 13,8 13,18c0,7 -2.579,11.612 -5,17c-2.578,5.737 -6.379,10.857 -10,16c-4.645,6.598 -15,19 -15,19c0,0 -10.355,-12.402 -15,-19c-3.621,-5.143 -7.422,-10.263 -10,-16c-2.421,-5.388 -5,-10 -5,-17c0,-10 4,-18 13,-18c7,0 11,10 12,14c1,1 1,0 1,-1c-1,-8 -1,-10 -2,-16c-1,-6 -4,-17 -4,-17c5,2 15,2 20,0c0,0 -3,11 -4,17c-1,6 -1,8 -2,16c0,1 0,2 1,1Z" style="fill-rule:nonzero;"/></g></svg>