<?xml version="1.0" encoding="UTF-8" standalone="no"?><!DOCTYPE svg PUBLIC "-//W3C//DTD SVG 1.1//EN" "http://www.w3.org/Graphics/SVG/1.1/DTD/svg11.dtd"><svg width="100%" height="100%" viewBox="0 0 364 544" version="1.1" xmlns="http://www.w3.org/2000/svg" xmlns:xlink="http://www.w3.org/1999/xlink" xml:space="preserve" style="fill-rule:evenodd;clip-rule:evenodd;"><g id="g3079"><path id="rect6472-2" d="M361.5,32.444c0,-16.526 -13.418,-29.944 -29.944,-29.944l-299.112,0c-16.526,0 -29.944,13.418 -29.944,29.944l0,479.112c0,16.526 13.418,29.944 29.944,29.944l299.112,0c16.526,0 29.944,-13.418 29.944,-29.944l0,-479.112Z" style="fill:#fff;stroke:#000;stroke-width:1px;"/><path id="rect3980-7-6-2-9-9-2" d="M32,32l-10,35l0,5l12,0l0,10l5,0l0,-10l3,0l0,-5l-3,0l0,-15l-5,0l0,15l-6.8,0l10,-35l-5.2,0Z" style="fill-rule:nonzero;"/><path id="rect3980-7-6-2-9-9-8-2" d="M332,512l10,-35l0,-5l-12,0l0,-10l-5,0l0,10l-3,0l0,5l3,0l0,15l5,0l0,-15l6.8,0l-10,35l5.2,0Z" style="fill-rule:nonzero;"/><path id="path3037-7-4-7-6" d="M34.5,120c0.5,2 2.5,7 6,7c4.5,0 6.5,-4 6.5,-9c0,-3.5 -1.289,-5.806 -2.5,-8.5c-1.289,-2.868 -3.19,-5.429 -5,-8c-2.323,-3.299 -7.5,-9.5 -7.5,-9.5c0,0 -5.177,6.201 -7.5,9.5c-1.81,2.571 -3.711,5.132 -5,8c-1.211,2.694 -2.5,5 -2.5,8.5c0,5 2,9 6.5,9c3.5,0 5.5,-5 6,-7c0.5,-0.5 0.5,0 0.5,0.5c-0.5,4 -0.5,5 -1,8c-0.5,3 -2,8.5 -2,8.5c2.5,-1 7.5,-1 10,0c0,0 -1.5,-5.5 -2,-8.5c-0.5,-3 -0.5,-4 -1,-8c0,-0.5 0,-1 0.5,-0.5Z" style="fill-rule:nonzero;"/><path id="path3037-7-4-4-4" d="M334.5,424c0.5,-2 2.5,-7 6,-7c4.5,0 6.5,4 6.5,9c0,3.5 -1.289,5.806 -2.5,8.5c-1.289,2.868 -3.19,5.429 -5,8c-2.323,3.299 -7.5,9.5 -7.5,9.5c0,0 -5.177,-6.201 -7.5,-9.5c-1.81,-2.571 -3.711,-5.132 -5,-8c-1.211,-2.694 -2.5,-5 -2.5,-8.5c0,-5 2,-9 6.5,-9c3.5,0 5.5,5 6,7c0.5,0.5 0.5,0 0.5,-0.5c-0.5,-4 -0.5,-5 -1,-8c-0.5,-3 -2,-8.5 -2,-8.5c2.5,1 7.5,1 10,0c0,0 -1.5,5.5 -2,8.5c-0.5,3 -0.5,4 -1,8c0,0.5 0,1 0.5,0.5Z" style="fill-rule:nonzero;"/><path id="path3029" d="M97.008,102.984c0.992,4.004 4.996,14.032 11.976,14.032c9,0 13.004,-8.008 13.004,-18c0,-7.016 -2.551,-11.622 -4.996,-17.008c-2.586,-5.74 -6.378,-10.878 -9.992,-16.016c-4.642,-6.59 -14.988,-18.992 -14.988,-18.992c0,0 -10.382,12.402 -15.024,18.992c-3.614,5.138 -7.405,10.276 -9.992,16.016c-2.409,5.386 -4.996,9.992 -4.996,17.008c0,9.992 4.004,18 13.004,18c6.98,0 10.984,-10.028 12.012,-14.032c0.992,-0.992 0.992,0 0.992,1.028c-0.992,7.972 -0.992,9.992 -2.02,15.98c-0.992,6.024 -4.004,17.008 -4.004,17.008c5.032,-1.984 15.024,-1.984 20.02,0c0,0 -3.012,-10.984 -4.004,-17.008c-0.992,-5.988 -0.992,-8.008 -1.984,-15.98c0,-1.028 0,-2.02 0.992,-1.028l0,0Z" style="fill-rule:nonzero;"/><path id="path3043" d="M277.008,102.984c0.992,4.004 4.996,14.032 11.976,14.032c9,0 13.004,-8.008 13.004,-18c0,-7.016 -2.551,-11.622 -4.996,-17.008c-2.586,-5.74 -6.378,-10.878 -9.992,-16.016c-4.642,-6.59 -14.988,-18.992 -14.988,-18.992c0,0 -10.382,12.402 -15.024,18.992c-3.614,5.138 -7.405,10.276 -9.992,16.016c-2.409,5.386 -4.996,9.992 -4.996,17.008c0,9.992 4.004,18 13.004,18c6.98,0 10.984,-10.028 12.012,-14.032c0.992,-0.992 0.992,0 0.992,1.028c-0.992,7.972 -0.992,9.992 -2.02,15.98c-0.992,6.024 -4.004,17.008 -4.004,17.008c5.032,-1.984 15.024,-1.984 20.02,0c0,0 -3.012,-10.984 -4.004,-17.008c-0.992,-5.988 -0.992,-8.008 -1.984,-15.98c0,-1.028 0,-2.02 0.992,-1.028l0,0Z" style="fill-rule:nonzero;"/><path id="path3057" d="M97.008,441.016c0.992,-4.004 4.996,-14.032 11.976,-14.032c9,0 13.004,8.008 13.004,18c0,7.016 -2.551,11.622 -4.996,17.008c-2.586,5.74 -6.378,10.878 -9.992,16.016c-4.642,6.59 -14.988,18.992 -14.988,18.992c0,0 -10.382,-12.402 -15.024,-18.992c-3.614,-5.138 -7.405,-10.276 -9.992,-16.016c-2.409,-5.386 -4.996,-9.992 -4.996,-17.008c0,-9.992 4.004,-18 13.004,-18c6.98,0 10.984,10.028 12.012,14.032c0.992,0.992 0.992,0 0.992,-1.028c-0.992,-7.972 -0.992,-9.992 -2.02,-15.98c-0.992,-6.024 -4.004,-17.008 -4.004,-17.008c5.032,1.984 15.024,1.984 20.02,0c0,0 -3.012,10.984 -4.004,17.008c-0.992,5.988 -0.992,8.008 -1.984,15.98c0,1.028 0,2.02 0.992,1.028l0,0Z" style="fill-rule:nonzero;"/><path id="path3071" d="M277.008,441.016c0.992,-4.004 4.996,-14.032 11.976,-14.032c9,0 13.004,8.008 13.004,18c0,7.016 -2.551,11.622 -4.996,17.008c-2.586,5.74 -6.378,10.878 -9.992,16.016c-4.642,6.59 -14.988,18.992 -14.988,18.992c0,0 -10.382,-12.402 -15.024,-18.992c-3.614,-5.138 -7.405,-10.276 -9.992,-16.016c-2.409,-5.386 -4.996,-9.992 -4.996,-17.008c0,-9.992 4.004,-18 13.004,-18c6.98,0 10.984,10.028 12.012,14.032c0.992,0.992 0.992,0 0.992,-1.028c-0.992,-7.972 -0.992,-9.992 -2.02,-15.98c-0.992,-6.024 -4.004,-17.008 -4.004,-17.008c5.032,1.984 15.024,1.984 20.02,0c0,0 -3.012,10.984 -4.004,17.008c-0.992,5.988 -0.992,8.008 -1.984,15.98c0,1.028 0,2.02 0.992,1.028l0,0Z" style="fill-rule:nonzero;"/></g></svg>