<svg xmlns="http://www.w3.org/2000/svg" id="svg2" width="100%" height="100%" version="1.0" viewBox="0 0 167.2 242.9" xml:space="preserve">
  <g id="Layer_x0020_1" fill="none" fill-rule="nonzero" stroke="#17067a" stroke-linecap="round" stroke-linejoin="round" stroke-miterlimit="4" stroke-width="1.3" transform="matrix(1.0001 0 0 .99809 0 .2)">
    <path id="path5" fill="#fff" stroke="#000" stroke-linecap="butt" stroke-linejoin="miter" stroke-width=".5" d="M167 235.7c0 3.8-3.2 7-7 7H7.3c-3.8 0-6.8-3.2-6.8-7V7.3C.4 3.5 3.4.4 7.2.4h152.9c3.7 0 6.8 3.1 6.8 7v228.3h0z"/>
    <path id="path7" fill="#fff" fill-rule="evenodd" stroke="none" d="M7.6 1.9a5.7 5.7 0 0 0-5.8 5.6v228c0 3 2.6 5.6 5.8 5.6h152.1c3.2 0 5.8-2.5 5.8-5.7V7.5c0-3.1-2.6-5.6-5.8-5.6H7.7z"/>
    <path id="path9" stroke-linecap="butt" stroke-linejoin="miter" stroke-miterlimit="10" stroke-width="2.9" d="M7.6 1.9a5.7 5.7 0 0 0-5.8 5.6v228c0 3 2.6 5.6 5.8 5.6h152.1c3.2 0 5.8-2.5 5.8-5.7V7.5c0-3.1-2.6-5.6-5.8-5.6H7.7h0z"/>
    <path id="path11" fill="#fff" fill-rule="evenodd" stroke="none" d="M9.3 7.4c-.8 0-1.5.6-1.5 1.4v225.3c0 .8.7 1.4 1.5 1.4h148.4c.8 0 1.5-.6 1.5-1.4V8.8c0-.8-.7-1.4-1.5-1.4H9.3z"/>
    <path id="path13" stroke-linecap="butt" stroke-linejoin="miter" stroke-miterlimit="10" stroke-width="2.7" d="M9.3 7.4c-.8 0-1.5.6-1.5 1.4v225.3c0 .8.7 1.4 1.5 1.4h148.4c.8 0 1.5-.6 1.5-1.4V8.8c0-.8-.7-1.4-1.5-1.4H9.3h0z"/>
    <path id="path15" fill="#313390" fill-rule="evenodd" stroke="none" d="M38.7 37.1c-.4 0-.7.3-.7.7v168c0 .4.3.8.7.8h88.2c.3 0 .7-.4.7-.7V37.8c0-.4-.3-.7-.7-.7H38.7z"/>
    <path id="path17" stroke-linecap="butt" stroke-linejoin="miter" stroke-miterlimit="10" stroke-width="1.6" d="M38.7 37.1c-.4 0-.7.3-.7.7v168c0 .4.3.8.7.8h88.2c.3 0 .7-.4.7-.7V37.8c0-.4-.3-.7-.7-.7H38.7h0z"/>
    <path id="path19" fill="#fff" fill-rule="evenodd" stroke="none" d="M52.6 43a8.2 8.2 0 0 0-8.3 8.2v140.6c0 4.5 3.7 8 8.3 8h60c4.5 0 8.3-3.5 8.3-8V51.2c0-4.5-3.8-8.1-8.4-8.1H52.6z"/>
    <path id="path21" stroke-linecap="butt" stroke-miterlimit="10" stroke-width="2.1" d="M52.6 43a8.2 8.2 0 0 0-8.3 8.2v140.6c0 4.5 3.7 8 8.3 8h60c4.5 0 8.3-3.5 8.3-8V51.2c0-4.5-3.8-8.1-8.4-8.1H52.6h0z"/>
    <path id="path23" fill="#313390" fill-rule="evenodd" stroke="none" d="M53.5 49.5a2.8 2.8 0 0 0-2.8 2.8v138.4c0 1.5 1.3 2.7 2.8 2.7h57.7c1.6 0 2.8-1.2 2.8-2.7V52.3c0-1.5-1.2-2.8-2.8-2.8H53.5z"/>
    <path id="path25" stroke-linecap="butt" stroke-miterlimit="10" stroke-width="1.8" d="M53.5 49.5a2.8 2.8 0 0 0-2.8 2.8v138.4c0 1.5 1.3 2.7 2.8 2.7h57.7c1.6 0 2.8-1.2 2.8-2.7V52.3c0-1.5-1.2-2.8-2.8-2.8H53.5z"/>
    <path id="path27" fill="#17067a" fill-rule="evenodd" stroke="none" d="M9.4 9h6.7l-6.6 6.4V9z"/>
    <path id="path29" stroke-linecap="butt" stroke-linejoin="miter" stroke-miterlimit="10" stroke-width=".9" d="M9.4 9h6.7l-6.6 6.4V9h0z"/>
    <path id="path31" fill="#17067a" fill-rule="evenodd" stroke="none" d="M157.5 9.1h-6.7l6.6 6.4V9.1z"/>
    <path id="path33" stroke-linecap="butt" stroke-linejoin="miter" stroke-miterlimit="10" stroke-width=".9" d="M157.5 9.1h-6.7l6.6 6.4V9.1h0z"/>
    <path id="path35" fill="#17067a" fill-rule="evenodd" stroke="none" d="M157.6 234.1H151l6.6-6.4.1 6.4z"/>
    <path id="path37" stroke-linecap="butt" stroke-linejoin="miter" stroke-miterlimit="10" stroke-width=".9" d="M157.6 234.1H151l6.6-6.4.1 6.4h0z"/>
    <path id="path39" fill="#17067a" fill-rule="evenodd" stroke="none" d="M9.4 234h6.7l-6.6-6.3v6.4z"/>
    <path id="path41" stroke-linecap="butt" stroke-linejoin="miter" stroke-miterlimit="10" stroke-width=".9" d="M9.4 234h6.7l-6.6-6.3v6.4h0z"/>
    <path id="path43" fill="#313390" fill-rule="evenodd" stroke="none" d="M12 130.6v6.2l22.4-11.5V119L12 130.6z"/>
    <path id="path45" stroke-miterlimit="10" stroke-width="1.3" d="M12 130.6v6.2l22.4-11.5V119L12 130.6h0z"/>
    <path id="path47" fill="#313390" fill-rule="evenodd" stroke="none" d="M12 142.2v6.2l22.5-11.5v-6.3l-22.4 11.6z"/>
    <path id="path49" stroke-miterlimit="10" stroke-width="1.3" d="M12 142.2v6.2l22.5-11.5v-6.3l-22.4 11.6h0z"/>
    <path id="path51" fill="#fff" fill-rule="evenodd" stroke="none" d="M11.9 136.8v-6.1L34.3 142v6.3l-22.4-11.6z"/>
    <path id="path53" stroke-miterlimit="10" stroke-width="1.3" d="M11.9 136.8v-6.1L34.3 142v6.3l-22.4-11.6h0z"/>
    <path id="path55" fill="#313390" fill-rule="evenodd" stroke="none" d="M12.1 118.9v6.1l22.5-11.5v-6.2L12 118.9z"/>
    <path id="path57" stroke-miterlimit="10" stroke-width="1.3" d="M12.1 118.9v6.1l22.5-11.5v-6.2L12 118.9h0z"/>
    <path id="path59" fill="#fff" fill-rule="evenodd" stroke="none" d="M12 125.3V119l22.5 11.5v6.3L12 125.3z"/>
    <path id="path61" stroke-miterlimit="10" stroke-width="1.3" d="M12 125.3V119l22.5 11.5v6.3L12 125.3h0z"/>
    <path id="path63" fill="#313390" fill-rule="evenodd" stroke="none" d="M12 107.3v6.1L34.4 102v-6.2L12 107.3z"/>
    <path id="path65" stroke-miterlimit="10" stroke-width="1.3" d="M12 107.3v6.1L34.4 102v-6.2L12 107.3h0z"/>
    <path id="path67" fill="#fff" fill-rule="evenodd" stroke="none" d="M12 113.4v-6l22.3 11.4v6.3L12 113.4z"/>
    <path id="path69" stroke-miterlimit="10" stroke-width="1.3" d="M12 113.4v-6l22.3 11.4v6.3L12 113.4h0z"/>
    <path id="path71" fill="#fff" fill-rule="evenodd" stroke="none" d="M12 102v-6.2l22.5 11.4v6.3L12.1 102z"/>
    <path id="path73" stroke-miterlimit="10" stroke-width="1.3" d="M12 102v-6.2l22.5 11.4v6.3L12.1 102h0z"/>
    <path id="path75" fill="#313390" fill-rule="evenodd" stroke="none" d="M12.1 154v6l22.4-11.4v-6.3L12.1 154z"/>
    <path id="path77" stroke-miterlimit="10" stroke-width="1.3" d="M12.1 154v6l22.4-11.4v-6.3L12.1 154z"/>
    <path id="path79" fill="#fff" fill-rule="evenodd" stroke="none" d="M11.9 148.5v-6.1l22.4 11.4v6.3L12 148.5z"/>
    <path id="path81" stroke-miterlimit="10" stroke-width="1.3" d="M11.9 148.5v-6.1l22.4 11.4v6.3L12 148.5z"/>
    <path id="path83" fill="#313390" fill-rule="evenodd" stroke="none" d="M11.9 72.2v6.1l22.4-11.5v-6.2L12 72.2z"/>
    <path id="path85" stroke-miterlimit="10" stroke-width="1.3" d="M11.9 72.2v6.1l22.4-11.5v-6.2L12 72.2z"/>
    <path id="path87" fill="#313390" fill-rule="evenodd" stroke="none" d="M12 83.8v6.1l22.4-11.5v-6.2L12 83.8z"/>
    <path id="path89" stroke-miterlimit="10" stroke-width="1.3" d="M12 83.8v6.1l22.4-11.5v-6.2L12 83.8z"/>
    <path id="path91" fill="#fff" fill-rule="evenodd" stroke="none" d="M11.8 78.3v-6l22.4 11.4V90L11.8 78.3z"/>
    <path id="path93" stroke-miterlimit="10" stroke-width="1.3" d="M11.8 78.3v-6l22.4 11.4V90L11.8 78.3z"/>
    <path id="path95" fill="#313390" fill-rule="evenodd" stroke="none" d="M12 60.4v6.2L34.5 55v-6.3L12 60.4z"/>
    <path id="path97" stroke-miterlimit="10" stroke-width="1.3" d="M12 60.4v6.2L34.5 55v-6.3L12 60.4z"/>
    <path id="path99" fill="#fff" fill-rule="evenodd" stroke="none" d="M12 66.8v-6.1L34.3 72v6.3L11.9 66.8z"/>
    <path id="path101" stroke-miterlimit="10" stroke-width="1.3" d="M12 66.8v-6.1L34.3 72v6.3L11.9 66.8z"/>
    <path id="path103" fill="#313390" fill-rule="evenodd" stroke="none" d="M12 48.8V55l22.4-11.5v-6.3L11.9 48.8z"/>
    <path id="path105" stroke-miterlimit="10" stroke-width="1.3" d="M12 48.8V55l22.4-11.5v-6.3L11.9 48.8z"/>
    <path id="path107" fill="#fff" fill-rule="evenodd" stroke="none" d="M11.8 55v-6.1l22.4 11.4v6.3L11.9 55z"/>
    <path id="path109" stroke-miterlimit="10" stroke-width="1.3" d="M11.8 55v-6.1l22.4 11.4v6.3L11.9 55z"/>
    <path id="path111" fill="#fff" fill-rule="evenodd" stroke="none" d="M12 43.5v-6.2l22.4 11.5V55L12 43.5z"/>
    <path id="path113" stroke-miterlimit="10" stroke-width="1.3" d="M12 43.5v-6.2l22.4 11.5V55L12 43.5z"/>
    <path id="path115" fill="#313390" fill-rule="evenodd" stroke="none" d="M12 95.5v6.1l22.5-11.4v-6.3L12 95.5z"/>
    <path id="path117" stroke-miterlimit="10" stroke-width="1.3" d="M12 95.5v6.1l22.5-11.4v-6.3L12 95.5z"/>
    <path id="path119" fill="#fff" fill-rule="evenodd" stroke="none" d="M11.8 90v-6l22.4 11.4v6.3L11.8 90z"/>
    <path id="path121" stroke-miterlimit="10" stroke-width="1.3" d="M11.8 90v-6l22.4 11.4v6.3L11.8 90z"/>
    <path id="path123" fill="#313390" fill-rule="evenodd" stroke="none" d="M12 189v6l22.4-11.4v-6.3L12 188.9z"/>
    <path id="path125" stroke-miterlimit="10" stroke-width="1.3" d="M12 189v6l22.4-11.4v-6.3L12 188.9h0z"/>
    <path id="path127" fill="#313390" fill-rule="evenodd" stroke="none" d="M12 200.5v6.2l22.5-11.5v-6.3l-22.4 11.6z"/>
    <path id="path129" stroke-miterlimit="10" stroke-width="1.3" d="M12 200.5v6.2l22.5-11.5v-6.3l-22.4 11.6h0z"/>
    <path id="path131" fill="#fff" fill-rule="evenodd" stroke="none" d="M11.9 195v-6l22.4 11.4v6.3l-22.4-11.6z"/>
    <path id="path133" stroke-miterlimit="10" stroke-width="1.3" d="M11.9 195v-6l22.4 11.4v6.3l-22.4-11.6z"/>
    <path id="path135" fill="#313390" fill-rule="evenodd" stroke="none" d="M12.1 177.2v6l22.5-11.4v-6.3L12 177.2z"/>
    <path id="path137" stroke-miterlimit="10" stroke-width="1.3" d="M12.1 177.2v6l22.5-11.4v-6.3L12 177.2h0z"/>
    <path id="path139" fill="#fff" fill-rule="evenodd" stroke="none" d="M12 183.5v-6l22.5 11.4v6.3L12 183.5z"/>
    <path id="path141" stroke-miterlimit="10" stroke-width="1.3" d="M12 183.5v-6l22.5 11.4v6.3L12 183.5h0z"/>
    <path id="path143" fill="#313390" fill-rule="evenodd" stroke="none" d="M12 165.6v6l22.4-11.4V154L12 165.6z"/>
    <path id="path145" stroke-miterlimit="10" stroke-width="1.3" d="M12 165.6v6l22.4-11.4V154L12 165.6z"/>
    <path id="path147" fill="#fff" fill-rule="evenodd" stroke="none" d="M12 171.7v-6.1L34.2 177v6.2L12 171.7z"/>
    <path id="path149" stroke-miterlimit="10" stroke-width="1.3" d="M12 171.7v-6.1L34.2 177v6.2L12 171.7h0z"/>
    <path id="path151" fill="#fff" fill-rule="evenodd" stroke="none" d="M12 160.2V154l22.5 11.4v6.3l-22.4-11.6z"/>
    <path id="path153" stroke-miterlimit="10" stroke-width="1.3" d="M12 160.2V154l22.5 11.4v6.3l-22.4-11.6z"/>
    <path id="path155" fill="#313390" fill-rule="evenodd" stroke="none" d="M132 113.3v-6.1l22.4 11.5v6.3l-22.5-11.7z"/>
    <path id="path157" stroke-miterlimit="10" stroke-width="1.3" d="M132 113.3v-6.1l22.4 11.5v6.3l-22.5-11.7h0z"/>
    <path id="path159" fill="#313390" fill-rule="evenodd" stroke="none" d="M132 101.7v-6.1l22.5 11.5v6.2L132 101.7z"/>
    <path id="path161" stroke-miterlimit="10" stroke-width="1.3" d="M132 101.7v-6.1l22.5 11.5v6.2L132 101.7z"/>
    <path id="path163" fill="#fff" fill-rule="evenodd" stroke="none" d="M131.8 107.2v6l22.5-11.4v-6.3l-22.5 11.7z"/>
    <path id="path165" stroke-miterlimit="10" stroke-width="1.3" d="M131.8 107.2v6l22.5-11.4v-6.3l-22.5 11.7h0z"/>
    <path id="path167" fill="#313390" fill-rule="evenodd" stroke="none" d="M132 125v-6l22.5 11.4v6.3l-22.4-11.6z"/>
    <path id="path169" stroke-miterlimit="10" stroke-width="1.3" d="M132 125v-6l22.5 11.4v6.3l-22.4-11.6z"/>
    <path id="path171" fill="#fff" fill-rule="evenodd" stroke="none" d="M132 118.7v6.1l22.4-11.4V107L132 118.7z"/>
    <path id="path173" stroke-miterlimit="10" stroke-width="1.3" d="M132 118.7v6.1l22.4-11.4V107L132 118.7h0z"/>
    <path id="path175" fill="#313390" fill-rule="evenodd" stroke="none" d="M132 136.7v-6.1l22.4 11.4v6.3L132 136.7z"/>
    <path id="path177" stroke-miterlimit="10" stroke-width="1.3" d="M132 136.7v-6.1l22.4 11.4v6.3L132 136.7h0z"/>
    <path id="path179" fill="#fff" fill-rule="evenodd" stroke="none" d="M131.9 130.5v6.2l22.4-11.5v-6.3L132 130.5z"/>
    <path id="path181" stroke-miterlimit="10" stroke-width="1.3" d="M131.9 130.5v6.2l22.4-11.5v-6.3L132 130.5z"/>
    <path id="path183" fill="#fff" fill-rule="evenodd" stroke="none" d="M132 142v6.2l22.5-11.5v-6.3L132 142.1z"/>
    <path id="path185" stroke-miterlimit="10" stroke-width="1.3" d="M132 142v6.2l22.5-11.5v-6.3L132 142.1z"/>
    <path id="path187" fill="#313390" fill-rule="evenodd" stroke="none" d="M132 90V84l22.5 11.4v6.3L132.1 90z"/>
    <path id="path189" stroke-miterlimit="10" stroke-width="1.3" d="M132 90V84l22.5 11.4v6.3L132.1 90h0z"/>
    <path id="path191" fill="#fff" fill-rule="evenodd" stroke="none" d="M131.9 95.4v6.2L154.3 90v-6.3l-22.4 11.6z"/>
    <path id="path193" stroke-miterlimit="10" stroke-width="1.3" d="M131.9 95.4v6.2L154.3 90v-6.3l-22.4 11.6z"/>
    <path id="path195" fill="#313390" fill-rule="evenodd" stroke="none" d="M131.9 171.8v-6.1l22.4 11.4v6.3l-22.4-11.6z"/>
    <path id="path197" stroke-miterlimit="10" stroke-width="1.3" d="M131.9 171.8v-6.1l22.4 11.4v6.3l-22.4-11.6z"/>
    <path id="path199" fill="#313390" fill-rule="evenodd" stroke="none" d="M132 160.2v-6.1l22.4 11.4v6.3L132 160.2z"/>
    <path id="path201" stroke-miterlimit="10" stroke-width="1.3" d="M132 160.2v-6.1l22.4 11.4v6.3L132 160.2z"/>
    <path id="path203" fill="#fff" fill-rule="evenodd" stroke="none" d="M131.7 165.6v6.2l22.5-11.5V154l-22.5 11.6z"/>
    <path id="path205" stroke-miterlimit="10" stroke-width="1.3" d="M131.7 165.6v6.2l22.5-11.5V154l-22.5 11.6z"/>
    <path id="path207" fill="#313390" fill-rule="evenodd" stroke="none" d="M132 183.6v-6.2l22.4 11.5v6.3L132 183.6z"/>
    <path id="path209" stroke-miterlimit="10" stroke-width="1.3" d="M132 183.6v-6.2l22.4 11.5v6.3L132 183.6h0z"/>
    <path id="path211" fill="#fff" fill-rule="evenodd" stroke="none" d="M132 177.2v6.1l22.3-11.5v-6.2L132 177.2z"/>
    <path id="path213" stroke-miterlimit="10" stroke-width="1.3" d="M132 177.2v6.1l22.3-11.5v-6.2L132 177.2h0z"/>
    <path id="path215" fill="#313390" fill-rule="evenodd" stroke="none" d="M132 195.2V189l22.3 11.5v6.3L132 195.2z"/>
    <path id="path217" stroke-miterlimit="10" stroke-width="1.3" d="M132 195.2V189l22.3 11.5v6.3L132 195.2h0z"/>
    <path id="path219" fill="#fff" fill-rule="evenodd" stroke="none" d="M131.8 189v6.1l22.4-11.4v-6.3L131.8 189z"/>
    <path id="path221" stroke-miterlimit="10" stroke-width="1.3" d="M131.8 189v6.1l22.4-11.4v-6.3L131.8 189z"/>
    <path id="path223" fill="#fff" fill-rule="evenodd" stroke="none" d="M132 200.6v6l22.4-11.4V189L132 200.6z"/>
    <path id="path225" stroke-miterlimit="10" stroke-width="1.3" d="M132 200.6v6l22.4-11.4V189L132 200.6h0z"/>
    <path id="path227" fill="#313390" fill-rule="evenodd" stroke="none" d="M132 148.5v-6.1l22.4 11.4v6.3L132 148.5z"/>
    <path id="path229" stroke-miterlimit="10" stroke-width="1.3" d="M132 148.5v-6.1l22.4 11.4v6.3L132 148.5z"/>
    <path id="path231" fill="#fff" fill-rule="evenodd" stroke="none" d="M131.8 154v6l22.4-11.4v-6.3l-22.4 11.6z"/>
    <path id="path233" stroke-miterlimit="10" stroke-width="1.3" d="M131.8 154v6l22.4-11.4v-6.3l-22.4 11.6h0z"/>
    <path id="path235" fill="#313390" fill-rule="evenodd" stroke="none" d="M132 55V49l22.4 11.4v6.3L131.9 55z"/>
    <path id="path237" stroke-miterlimit="10" stroke-width="1.3" d="M132 55V49l22.4 11.4v6.3L131.9 55h0z"/>
    <path id="path239" fill="#313390" fill-rule="evenodd" stroke="none" d="M132 43.4v-6.1l22.5 11.4V55L132 43.4z"/>
    <path id="path241" stroke-miterlimit="10" stroke-width="1.3" d="M132 43.4v-6.1l22.5 11.4V55L132 43.4h0z"/>
    <path id="path243" fill="#fff" fill-rule="evenodd" stroke="none" d="M131.8 48.8V55l22.5-11.5v-6.3l-22.5 11.6z"/>
    <path id="path245" stroke-miterlimit="10" stroke-width="1.3" d="M131.8 48.8V55l22.5-11.5v-6.3l-22.5 11.6h0z"/>
    <path id="path247" fill="#313390" fill-rule="evenodd" stroke="none" d="M132 66.8v-6.2l22.5 11.5v6.3l-22.4-11.6z"/>
    <path id="path249" stroke-miterlimit="10" stroke-width="1.3" d="M132 66.8v-6.2l22.5 11.5v6.3l-22.4-11.6h0z"/>
    <path id="path251" fill="#fff" fill-rule="evenodd" stroke="none" d="M132 60.4v6.1L154.4 55v-6.3L132 60.4z"/>
    <path id="path253" stroke-miterlimit="10" stroke-width="1.3" d="M132 60.4v6.1L154.4 55v-6.3L132 60.4h0z"/>
    <path id="path255" fill="#313390" fill-rule="evenodd" stroke="none" d="M132 78.4v-6.2l22.4 11.5V90L132 78.4z"/>
    <path id="path257" stroke-miterlimit="10" stroke-width="1.3" d="M132 78.4v-6.2l22.4 11.5V90L132 78.4h0z"/>
    <path id="path259" fill="#fff" fill-rule="evenodd" stroke="none" d="M131.9 72.2v6.1L154.3 67v-6.3L132 72.2z"/>
    <path id="path261" stroke-miterlimit="10" stroke-width="1.3" d="M131.9 72.2v6.1L154.3 67v-6.3L132 72.2z"/>
    <path id="path263" fill="#fff" fill-rule="evenodd" stroke="none" d="M132 83.8v6l22.5-11.4v-6.3L132 83.8z"/>
    <path id="path265" stroke-miterlimit="10" stroke-width="1.3" d="M132 83.8v6l22.5-11.4v-6.3L132 83.8z"/>
    <path id="path267" fill="#313390" fill-rule="evenodd" stroke="none" d="M68.5 11.5h-6.2L74 33.3h6.5l-12-21.8z"/>
    <path id="path269" stroke-miterlimit="10" stroke-width="1.3" d="M68.5 11.5h-6.2L74 33.3h6.5l-12-21.8z"/>
    <path id="path271" fill="#313390" fill-rule="evenodd" stroke="none" d="M56.7 11.6h-6.3L62 33.4h6.5l-12-21.8z"/>
    <path id="path273" stroke-miterlimit="10" stroke-width="1.3" d="M56.7 11.6h-6.3L62 33.4h6.5l-12-21.8z"/>
    <path id="path275" fill="#fff" fill-rule="evenodd" stroke="none" d="M62.2 11.4h6.3L56.8 33.2h-6.5l12-21.8z"/>
    <path id="path277" stroke-miterlimit="10" stroke-width="1.3" d="M62.2 11.4h6.3L56.8 33.2h-6.5l12-21.8z"/>
    <path id="path279" fill="#313390" fill-rule="evenodd" stroke="none" d="M80.6 11.7h-6.3l11.8 21.8h6.4L80.6 11.7z"/>
    <path id="path281" stroke-miterlimit="10" stroke-width="1.3" d="M80.6 11.7h-6.3l11.8 21.8h6.4L80.6 11.7h0z"/>
    <path id="path283" fill="#fff" fill-rule="evenodd" stroke="none" d="M74 11.6h6.3L68.6 33.4H62l12-21.8z"/>
    <path id="path285" stroke-miterlimit="10" stroke-width="1.3" d="M74 11.6h6.3L68.6 33.4H62l12-21.8h0z"/>
    <path id="path287" fill="#313390" fill-rule="evenodd" stroke="none" d="M116.5 11.7h-6.3l11.7 21.8h6.5l-12-21.8z"/>
    <path id="path289" stroke-miterlimit="10" stroke-width="1.3" d="M116.5 11.7h-6.3l11.7 21.8h6.5l-12-21.8z"/>
    <path id="path291" fill="#313390" fill-rule="evenodd" stroke="none" d="M92.5 11.6h-6.3L98 33.4h6.4L92.5 11.6z"/>
    <path id="path293" stroke-miterlimit="10" stroke-width="1.3" d="M92.5 11.6h-6.3L98 33.4h6.4L92.5 11.6z"/>
    <path id="path295" fill="#fff" fill-rule="evenodd" stroke="none" d="M86.2 11.4h6.3L80.7 33.3h-6.4l11.9-21.9z"/>
    <path id="path297" stroke-miterlimit="10" stroke-width="1.3" d="M86.2 11.4h6.3L80.7 33.3h-6.4l11.9-21.9h0z"/>
    <path id="path299" fill="#313390" fill-rule="evenodd" stroke="none" d="M104.6 11.8h-6.3L110 33.6h6.5l-12-21.8z"/>
    <path id="path301" stroke-miterlimit="10" stroke-width="1.3" d="M104.6 11.8h-6.3L110 33.6h6.5l-12-21.8h0z"/>
    <path id="path303" fill="#fff" fill-rule="evenodd" stroke="none" d="M98 11.6h6.3L92.5 33.4h-6.4l12-21.8z"/>
    <path id="path305" stroke-miterlimit="10" stroke-width="1.3" d="M98 11.6h6.3L92.5 33.4h-6.4l12-21.8z"/>
    <path id="path307" fill="#fff" fill-rule="evenodd" stroke="none" d="M110.1 11.5h6.3l-11.7 21.9h-6.5l12-21.9z"/>
    <path id="path309" stroke-miterlimit="10" stroke-width="1.3" d="M110.1 11.5h6.3l-11.7 21.9h-6.5l12-21.9h0z"/>
    <path id="path311" fill="#313390" fill-rule="evenodd" stroke="none" d="M128.5 11.7h-6.3L134 33.5h6.4l-12-21.8z"/>
    <path id="path313" stroke-miterlimit="10" stroke-width="1.3" d="M128.5 11.7h-6.3L134 33.5h6.4l-12-21.8h0z"/>
    <path id="path315" fill="#fff" fill-rule="evenodd" stroke="none" d="M122 11.7h6.3l-11.8 21.8H110L122 11.7z"/>
    <path id="path317" stroke-miterlimit="10" stroke-width="1.3" d="M122 11.7h6.3l-11.8 21.8H110L122 11.7h0z"/>
    <path id="path319" fill="#313390" fill-rule="evenodd" stroke="none" d="M44.6 11.7h-6.2L50 33.5h6.5l-12-21.8z"/>
    <path id="path321" stroke-miterlimit="10" stroke-width="1.3" d="M44.6 11.7h-6.2L50 33.5h6.5l-12-21.8z"/>
    <path id="path323" fill="#313390" fill-rule="evenodd" stroke="none" d="M32.9 11.4h-6.3l11.7 21.9h6.5l-12-21.9z"/>
    <path id="path325" stroke-miterlimit="10" stroke-width="1.3" d="M32.9 11.4h-6.3l11.7 21.9h6.5l-12-21.9h0z"/>
    <path id="path327" fill="#fff" fill-rule="evenodd" stroke="none" d="M50.2 11.4h6.3L44.7 33.2h-6.4l12-21.8z"/>
    <path id="path329" stroke-miterlimit="10" stroke-width="1.3" d="M50.2 11.4h6.3L44.7 33.2h-6.4l12-21.8h0z"/>
    <path id="path331" fill="#313390" fill-rule="evenodd" stroke="none" d="M21 11.4h-6.3l11.7 21.9H33l-12-21.9z"/>
    <path id="path333" stroke-miterlimit="10" stroke-width="1.3" d="M21 11.4h-6.3l11.7 21.9H33l-12-21.9z"/>
    <path id="path335" fill="#fff" fill-rule="evenodd" stroke="none" d="M38.3 11.4h6.3L33 33.3h-6.5l12-21.9z"/>
    <path id="path337" stroke-miterlimit="10" stroke-width="1.3" d="M38.3 11.4h6.3L33 33.3h-6.5l12-21.9h0z"/>
    <path id="path339" fill="#fff" fill-rule="evenodd" stroke="none" d="M26.6 11.4h6.3L21 33.3h-6.4l11.9-21.9z"/>
    <path id="path341" stroke-miterlimit="10" stroke-width="1.3" d="M26.6 11.4h6.3L21 33.3h-6.4l11.9-21.9h0z"/>
    <path id="path343" fill="#313390" fill-rule="evenodd" stroke="none" d="M140.4 11.6H134l11.8 21.8h6.4l-12-21.8z"/>
    <path id="path345" stroke-miterlimit="10" stroke-width="1.3" d="M140.4 11.6H134l11.8 21.8h6.4l-12-21.8h0z"/>
    <path id="path347" fill="#fff" fill-rule="evenodd" stroke="none" d="M134 11.5h6.4l-11.8 21.8H122l12-21.8z"/>
    <path id="path349" stroke-miterlimit="10" stroke-width="1.3" d="M134 11.5h6.4l-11.8 21.8H122l12-21.8z"/>
    <path id="path351" fill="#fff" fill-rule="evenodd" stroke="none" d="M145.9 11.7h6.3l-11.8 21.8H134l11.9-21.8z"/>
    <path id="path353" stroke-miterlimit="10" stroke-width="1.3" d="M145.9 11.7h6.3l-11.8 21.8H134l11.9-21.8h0z"/>
    <path id="path355" fill="#313390" fill-rule="evenodd" stroke="none" d="M68.9 210h-6.3l11.8 21.7h6.4l-12-21.8z"/>
    <path id="path357" stroke-miterlimit="10" stroke-width="1.3" d="M68.9 210h-6.3l11.8 21.7h6.4l-12-21.8h0z"/>
    <path id="path359" fill="#313390" fill-rule="evenodd" stroke="none" d="M57 210h-6.3L62.5 232h6.4L57 210z"/>
    <path id="path361" stroke-miterlimit="10" stroke-width="1.3" d="M57 210h-6.3L62.5 232h6.4L57 210h0z"/>
    <path id="path363" fill="#fff" fill-rule="evenodd" stroke="none" d="M62.6 209.8h6.3L57 231.6h-6.5l12-21.8z"/>
    <path id="path365" stroke-miterlimit="10" stroke-width="1.3" d="M62.6 209.8h6.3L57 231.6h-6.5l12-21.8h0z"/>
    <path id="path367" fill="#313390" fill-rule="evenodd" stroke="none" d="M81 210h-6.3l11.7 22H93l-12-22z"/>
    <path id="path369" stroke-miterlimit="10" stroke-width="1.3" d="M81 210h-6.3l11.7 22H93l-12-22z"/>
    <path id="path371" fill="#fff" fill-rule="evenodd" stroke="none" d="M74.4 210h6.3l-11.8 21.8h-6.4L74.4 210z"/>
    <path id="path373" stroke-miterlimit="10" stroke-width="1.3" d="M74.4 210h6.3l-11.8 21.8h-6.4L74.4 210z"/>
    <path id="path375" fill="#313390" fill-rule="evenodd" stroke="none" d="M116.8 210h-6.3l11.8 21.9h6.4L116.8 210z"/>
    <path id="path377" stroke-miterlimit="10" stroke-width="1.3" d="M116.8 210h-6.3l11.8 21.9h6.4L116.8 210z"/>
    <path id="path379" fill="#313390" fill-rule="evenodd" stroke="none" d="M92.8 210h-6.2l11.7 21.8h6.5l-12-21.8z"/>
    <path id="path381" stroke-miterlimit="10" stroke-width="1.3" d="M92.8 210h-6.2l11.7 21.8h6.5l-12-21.8h0z"/>
    <path id="path383" fill="#fff" fill-rule="evenodd" stroke="none" d="M86.5 209.9h6.3l-11.7 21.8h-6.5l12-21.8z"/>
    <path id="path385" stroke-miterlimit="10" stroke-width="1.3" d="M86.5 209.9h6.3l-11.7 21.8h-6.5l12-21.8z"/>
    <path id="path387" fill="#313390" fill-rule="evenodd" stroke="none" d="M105 210.2h-6.4l11.8 21.8h6.4L105 210.2z"/>
    <path id="path389" stroke-miterlimit="10" stroke-width="1.3" d="M105 210.2h-6.4l11.8 21.8h6.4L105 210.2z"/>
    <path id="path391" fill="#fff" fill-rule="evenodd" stroke="none" d="M98.4 210h6.2L93 232h-6.5l12-21.9z"/>
    <path id="path393" stroke-miterlimit="10" stroke-width="1.3" d="M98.4 210h6.2L93 232h-6.5l12-21.9z"/>
    <path id="path395" fill="#fff" fill-rule="evenodd" stroke="none" d="M110.5 210h6.3L105 231.8h-6.4l11.9-21.8z"/>
    <path id="path397" stroke-miterlimit="10" stroke-width="1.3" d="M110.5 210h6.3L105 231.8h-6.4l11.9-21.8z"/>
    <path id="path399" fill="#313390" fill-rule="evenodd" stroke="none" d="M128.7 210.2h-6.3L134 232h6.5l-12-21.8z"/>
    <path id="path401" stroke-miterlimit="10" stroke-width="1.3" d="M128.7 210.2h-6.3L134 232h6.5l-12-21.8h0z"/>
    <path id="path403" fill="#fff" fill-rule="evenodd" stroke="none" d="M122.3 210.1h6.3L116.8 232h-6.4l12-21.9z"/>
    <path id="path405" stroke-miterlimit="10" stroke-width="1.3" d="M122.3 210.1h6.3L116.8 232h-6.4l12-21.9z"/>
    <path id="path407" fill="#313390" fill-rule="evenodd" stroke="none" d="M45 210h-6.3L50.5 232h6.4L45 210z"/>
    <path id="path409" stroke-miterlimit="10" stroke-width="1.3" d="M45 210h-6.3L50.5 232h6.4L45 210z"/>
    <path id="path411" fill="#313390" fill-rule="evenodd" stroke="none" d="M33 210.1h-6.3L38.5 232h6.4l-12-21.8z"/>
    <path id="path413" stroke-miterlimit="10" stroke-width="1.3" d="M33 210.1h-6.3L38.5 232h6.4l-12-21.8h0z"/>
    <path id="path415" fill="#fff" fill-rule="evenodd" stroke="none" d="M50.6 209.9h6.3L45 231.7h-6.5l12-21.8z"/>
    <path id="path417" stroke-miterlimit="10" stroke-width="1.3" d="M50.6 209.9h6.3L45 231.7h-6.5l12-21.8h0z"/>
    <path id="path419" fill="#313390" fill-rule="evenodd" stroke="none" d="M140.5 210h-6.2l11.7 22h6.5l-12-22z"/>
    <path id="path421" stroke-miterlimit="10" stroke-width="1.3" d="M140.5 210h-6.2l11.7 22h6.5l-12-22z"/>
    <path id="path423" fill="#fff" fill-rule="evenodd" stroke="none" d="M134.2 210h6.3l-11.7 21.8h-6.5l12-21.8z"/>
    <path id="path425" stroke-miterlimit="10" stroke-width="1.3" d="M134.2 210h6.3l-11.7 21.8h-6.5l12-21.8h0z"/>
    <path id="path427" fill="#fff" fill-rule="evenodd" stroke="none" d="M146 210.2h6.3L140.6 232H134l12-21.8z"/>
    <path id="path429" stroke-miterlimit="10" stroke-width="1.3" d="M146 210.2h6.3L140.6 232H134l12-21.8z"/>
    <path id="path431" fill="#fff" fill-rule="evenodd" stroke="none" d="M38.6 209.9h6.3L33 231.7h-6.4L38.6 210z"/>
    <path id="path433" stroke-miterlimit="10" stroke-width="1.3" d="M38.6 209.9h6.3L33 231.7h-6.4L38.6 210h0z"/>
    <path id="path435" fill="#313390" fill-rule="evenodd" stroke="none" d="M21 210.1h-6.3L26.5 232h6.4L21 210z"/>
    <path id="path437" stroke-miterlimit="10" stroke-width="1.3" d="M21 210.1h-6.3L26.5 232h6.4L21 210z"/>
    <path id="path439" fill="#fff" fill-rule="evenodd" stroke="none" d="M26.6 210h6.3L21 231.6h-6.5l12-21.8z"/>
    <path id="path441" stroke-miterlimit="10" stroke-width="1.3" d="M26.6 210h6.3L21 231.6h-6.5l12-21.8h0z"/>
    <path id="path443" stroke="#000" stroke-linecap="butt" stroke-linejoin="miter" stroke-width=".5" d="M166.8 235.5c0 3.8-3 7-6.8 7H7c-3.8 0-6.8-3.2-6.8-7V7.1C.3 3.3 3.3.3 7 .3H160c3.7 0 6.8 3 6.8 6.8v228.4h0z"/>
  </g>
</svg>
